<svg xmlns="http://www.w3.org/2000/svg" xmlns:xlink="http://www.w3.org/1999/xlink" width="1316px" height="931px">
    <path fill-rule="evenodd" fill="rgb(117, 213, 203)"
        d="M10.884,226.511 C33.762,143.2 92.783,82.86 145.674,48.157 C231.52,-6.611 328.762,-6.206 400.575,11.929 C468.126,28.988 515.746,65.739 530.27,84.385 C579.427,148.884 579.650,244.283 552.715,311.508 C528.523,371.884 481.513,389.204 463.799,456.619 C445.793,525.143 470.810,586.226 487.959,615.586 C562.279,742.827 772.806,765.233 863.667,683.542 C943.673,611.612 894.678,491.119 981.375,401.368 C1027.981,353.120 1108.913,316.154 1181.292,340.769 C1227.31,356.324 1263.158,396.392 1288.57,448.60 C1346.642,569.627 1307.646,734.905 1221.329,831.242 C1164.674,894.474 974.519,961.338 686.171,916.238 C532.907,892.267 398.238,835.707 336.570,795.269 C162.414,681.69 -47.349,439.70 10.884,226.511 Z" />
</svg>